<svg version="1.1" id="Layer_1" xmlns="http://www.w3.org/2000/svg" xmlns:xlink="http://www.w3.org/1999/xlink" x="0px" y="0px"
	 width="100%" viewBox="0 0 1024 1024" enable-background="new 0 0 1024 1024" xml:space="preserve">
<path fill="#000000" opacity="1.000000" stroke="none" 
	d="
M473.000000,830.115417 
	C403.501801,830.115479 334.503601,830.111328 265.505402,830.125793 
	C261.797577,830.126587 258.124908,829.939148 254.948212,827.801758 
	C250.834366,825.033875 248.791656,819.677734 249.907959,815.091980 
	C251.176483,809.880859 254.971268,806.445740 260.284790,805.617004 
	C265.589996,804.789612 270.987915,804.637329 276.238647,805.237000 
	C281.596344,805.848755 283.381805,803.595093 284.752960,798.885986 
	C291.910309,774.305115 299.190277,749.756165 306.789154,725.308472 
	C318.389465,687.987122 330.335480,650.773438 342.040619,613.484497 
	C351.545380,583.205383 361.212921,552.962952 367.059021,521.686584 
	C372.028687,495.099274 373.937408,468.372040 371.927460,441.303864 
	C370.646454,424.052551 368.726837,406.937286 365.867340,389.888214 
	C364.354919,380.870941 370.222015,374.731201 379.910950,374.721497 
	C418.743225,374.682617 457.575592,374.704315 496.407928,374.705200 
	C545.406677,374.706329 594.405457,374.704498 643.404175,374.713959 
	C656.425964,374.716492 661.174133,380.953583 658.864807,393.920471 
	C655.863892,410.771210 654.124939,427.763794 653.160461,444.890259 
	C652.370789,458.912506 652.525391,472.883453 653.531250,486.804016 
	C654.763611,503.859863 657.888123,520.696350 661.760986,537.374634 
	C671.175476,577.918335 685.126892,617.108582 697.389221,656.799500 
	C712.209595,704.770264 727.354675,752.640564 742.257751,800.585876 
	C743.288391,803.901733 744.496887,805.500000 748.411133,805.234131 
	C754.200989,804.840881 760.062012,804.766479 765.872314,805.608398 
	C772.008179,806.497498 776.032593,810.589600 776.328491,816.401001 
	C776.689270,823.488647 773.744019,827.892883 767.406799,829.432678 
	C765.491211,829.898071 763.465515,830.101990 761.490173,830.102539 
	C665.493469,830.129028 569.496704,830.120117 473.000000,830.115417 
M395.382385,500.712891 
	C394.925354,504.335236 394.576141,507.974976 393.994293,511.577148 
	C389.266754,540.844604 381.238281,569.288025 372.558929,597.576233 
	C352.029053,664.488586 329.241577,730.693665 309.817444,797.952515 
	C307.766266,805.054993 307.648407,805.048340 315.267273,805.048157 
	C446.071564,805.045532 576.875854,805.035706 707.680176,805.027466 
	C711.130920,805.027283 714.581726,805.027466 718.446167,805.027466 
	C717.870605,802.903198 717.430847,801.158752 716.925781,799.433472 
	C700.851074,744.532288 681.982544,690.516052 665.103027,635.870911 
	C650.503357,588.606140 633.584167,541.892029 629.241943,492.082672 
	C627.779724,475.309601 628.283325,458.470856 629.113220,441.678375 
	C629.703308,429.739014 630.748657,417.813141 631.938843,405.916046 
	C632.593445,399.371826 632.917969,399.378174 626.655151,399.377594 
	C550.505249,399.370575 474.355408,399.367432 398.205536,399.398651 
	C396.462769,399.399353 394.521484,398.792450 392.834351,400.518890 
	C393.330933,405.825592 393.832825,411.256165 394.348450,416.685425 
	C395.385529,427.604889 395.846008,438.566193 396.657379,449.496399 
	C397.907776,466.341248 397.318054,483.075012 395.382385,500.712891 
z"/>
<path fill="#000000" opacity="1.000000" stroke="none" 
	d="
M578.967651,307.247131 
	C569.829468,307.237122 561.183228,307.112183 552.542114,307.270447 
	C548.849426,307.338043 547.571594,305.900818 547.621460,302.279205 
	C547.767639,291.642181 547.804199,280.999481 547.606384,270.364166 
	C547.535156,266.535492 549.070251,265.535339 552.616211,265.588379 
	C563.252808,265.747528 573.895020,265.756134 584.531494,265.594055 
	C588.225525,265.537781 589.462280,266.905945 589.400085,270.543121 
	C589.229553,280.514282 589.355713,290.490326 589.343567,300.464417 
	C589.335266,307.219147 589.319458,307.219299 582.453979,307.241028 
	C581.456543,307.244202 580.459167,307.244965 578.967651,307.247131 
z"/>
<path fill="#000000" opacity="1.000000" stroke="none" 
	d="
M548.660278,176.999573 
	C548.665894,171.014740 548.781189,165.526886 548.634949,160.046005 
	C548.550842,156.895111 549.657227,155.566223 552.932434,155.600388 
	C564.067261,155.716553 575.204590,155.699020 586.339844,155.603668 
	C589.401001,155.577454 590.376831,156.888168 590.352417,159.801758 
	C590.261902,170.604660 590.270020,181.409225 590.358826,192.212204 
	C590.382568,195.103973 589.425842,196.459778 586.350891,196.432312 
	C575.215637,196.332886 564.078430,196.315201 552.943359,196.415466 
	C549.689331,196.444763 548.532104,195.113251 548.629211,191.958588 
	C548.777527,187.143127 548.663208,182.319595 548.660278,176.999573 
z"/>
<path fill="#000000" opacity="1.000000" stroke="none" 
	d="
M653.997559,146.384521 
	C647.338440,146.380066 641.176819,146.283264 635.019653,146.407684 
	C631.822571,146.472275 630.590271,145.216812 630.624817,142.000626 
	C630.741211,131.180649 630.673462,120.358681 630.677734,109.537476 
	C630.678467,107.598740 630.849060,105.729591 633.445435,105.725594 
	C645.548523,105.706963 657.651611,105.717339 670.292419,105.717339 
	C670.292419,118.701248 670.300598,131.136993 670.285706,143.572693 
	C670.282593,146.168137 668.418457,146.355835 666.483337,146.363266 
	C662.487854,146.378616 658.492310,146.377991 653.997559,146.384521 
z"/>
<path fill="#000000" opacity="1.000000" stroke="none" 
	d="
M478.919678,248.912720 
	C478.921234,240.783066 479.050354,233.136902 478.871552,225.497940 
	C478.789948,222.010254 479.605408,220.414368 483.556793,220.508606 
	C494.167633,220.761612 504.788483,220.594955 515.495544,220.594955 
	C516.963562,224.074249 516.247253,227.414963 516.300964,230.649536 
	C516.416809,237.626144 516.117004,244.614868 516.403503,251.581528 
	C516.579468,255.862381 515.277405,257.538177 510.801056,257.370514 
	C502.836700,257.072235 494.853119,257.293945 486.877563,257.288666 
	C478.940918,257.283417 478.940918,257.278290 478.919678,248.912720 
z"/>
<path fill="#000000" opacity="1.000000" stroke="none" 
	d="
M454.900909,287.674683 
	C459.830475,287.085693 461.632355,288.763855 461.435455,293.480011 
	C461.095367,301.626678 461.243347,309.798553 461.364471,317.957184 
	C461.411163,321.100952 460.357361,322.471771 457.063568,322.420502 
	C448.405487,322.285645 439.743103,322.303986 431.084259,322.409973 
	C427.953888,322.448303 426.573853,321.363922 426.625427,318.074371 
	C426.761200,309.416351 426.794861,300.752197 426.613586,292.095856 
	C426.537140,288.445892 428.173157,287.580383 431.431946,287.639130 
	C439.090332,287.777130 446.753052,287.678162 454.900909,287.674683 
z"/>
<path fill="#000000" opacity="1.000000" stroke="none" 
	d="
M637.350220,229.936188 
	C637.313110,238.219116 637.313110,238.217514 629.353149,238.207123 
	C624.354614,238.200592 619.353699,238.103912 614.358459,238.230759 
	C611.162109,238.311920 609.810791,236.972794 609.855774,233.799835 
	C609.942993,227.636322 609.927124,221.470535 609.876587,215.306320 
	C609.856140,212.806854 610.914673,211.648575 613.449707,211.664841 
	C620.113892,211.707611 626.779846,211.749573 633.442383,211.632950 
	C636.594604,211.577759 637.429626,213.136246 637.363220,215.951569 
	C637.257324,220.447617 637.344604,224.948196 637.350220,229.936188 
z"/>
<path fill="#000000" opacity="1.000000" stroke="none" 
	d="
M522.346313,346.984436 
	C522.347229,358.375092 522.347229,358.378204 511.584656,358.378143 
	C507.259125,358.378113 502.932465,358.297089 498.608521,358.374939 
	C495.859222,358.424469 494.724945,357.229431 494.761475,354.493469 
	C494.845795,348.172638 494.856628,341.849213 494.771210,335.528534 
	C494.734406,332.806183 495.790802,331.605072 498.575195,331.639679 
	C505.228760,331.722351 511.884857,331.715393 518.538391,331.627686 
	C521.312256,331.591156 522.420105,332.773346 522.343811,335.508209 
	C522.241821,339.165161 522.335876,342.827606 522.346313,346.984436 
z"/>
<path fill="#000000" opacity="1.000000" stroke="none" 
	d="
M637.078857,594.318481 
	C641.416260,617.557068 645.612244,640.392822 649.896240,663.211914 
	C651.242859,670.384705 653.086731,677.470703 654.252502,684.669434 
	C658.130676,708.616943 640.657410,730.741760 618.447571,735.323242 
	C601.194092,738.882324 586.163879,733.601562 573.723511,722.257812 
	C562.504150,712.027222 550.426880,708.395386 535.341553,709.077271 
	C514.756287,710.007812 494.067017,711.120239 473.427429,709.378845 
	C470.033417,709.092468 467.298431,710.235107 464.715973,712.307617 
	C458.873566,716.996521 452.971497,721.612183 447.051605,726.203369 
	C419.663666,747.443970 381.199463,734.457031 372.163422,701.091370 
	C369.647644,691.801941 371.840942,683.038391 373.600464,674.080750 
	C379.035309,646.411621 384.078827,618.663452 389.756317,591.045044 
	C394.066864,570.076172 414.677673,552.739746 435.950043,551.668945 
	C472.732941,549.817566 509.545959,551.252136 546.344299,550.964233 
	C560.151611,550.856140 573.959229,550.678833 587.788696,551.406677 
	C611.114197,552.634399 631.885559,569.876404 637.078857,594.318481 
M618.461304,625.908752 
	C616.843323,617.269592 615.125854,608.647522 613.630737,599.987183 
	C611.427246,587.222961 600.300354,576.434631 588.235413,576.400574 
	C537.916748,576.258423 487.597260,576.269836 437.278473,576.392578 
	C426.253510,576.419434 415.426605,585.574097 413.322540,596.232727 
	C408.247803,621.939941 403.250305,647.662903 398.369171,673.407532 
	C397.139587,679.892822 394.400757,686.295959 395.631195,693.018677 
	C398.696350,709.765869 415.728912,717.127136 430.031494,707.704651 
	C437.243317,702.953491 443.910797,697.355835 450.681671,691.961914 
	C456.099945,687.645447 461.940887,685.523560 469.041962,685.585510 
	C497.864990,685.836914 526.693237,685.865601 555.515503,685.571838 
	C562.783142,685.497681 568.741882,687.391296 574.320129,691.952393 
	C581.274963,697.638855 588.231201,703.377075 595.875610,708.155579 
	C604.227356,713.376221 614.122681,713.181580 622.064453,707.047729 
	C629.441467,701.350159 631.665466,693.625793 629.793091,684.407104 
	C625.897095,665.224609 622.308350,645.979797 618.461304,625.908752 
z"/>
<path fill="#000000" opacity="1.000000" stroke="none" 
	d="
M473.189880,618.647949 
	C475.478058,618.651306 477.309906,618.606506 479.138245,618.667603 
	C483.998566,618.829895 486.076538,620.814941 486.308472,625.645874 
	C486.459991,628.801453 486.470490,631.965637 486.477295,635.126038 
	C486.487793,640.018250 484.605499,641.978699 479.613831,642.318176 
	C478.453430,642.397156 477.282166,642.425964 476.121277,642.368591 
	C471.269257,642.129028 468.974243,644.362244 469.356445,649.249756 
	C469.369354,649.415039 469.357330,649.582458 469.353485,649.748779 
	C469.073242,661.870544 462.840698,666.309814 450.974915,662.813232 
	C447.530487,661.798218 445.694733,659.479126 445.684479,655.855103 
	C445.673187,651.862610 445.574677,647.860535 445.812653,643.880432 
	C446.002716,640.701904 444.964813,639.089355 441.636414,639.381470 
	C441.471466,639.395935 441.303497,639.372009 441.137543,639.379639 
	C422.298431,640.245667 426.053589,635.021484 425.632172,621.822266 
	C425.508087,617.934326 427.867889,616.125000 431.461212,615.712341 
	C432.941864,615.542358 434.454132,615.668579 435.949280,615.600037 
	C440.235291,615.403442 443.280029,614.250916 442.801666,608.845520 
	C442.529541,605.770691 443.323334,602.588196 443.761292,599.471680 
	C443.894592,598.523438 444.272583,597.511536 444.829315,596.738159 
	C446.949615,593.792969 456.780029,592.679443 462.424347,594.539856 
	C467.091583,596.078125 467.477753,599.770813 467.274292,603.780884 
	C467.139679,606.434753 466.976379,609.093689 466.660095,611.730469 
	C465.907471,618.004211 466.340851,618.539978 473.189880,618.647949 
z"/>
<path fill="#000000" opacity="1.000000" stroke="none" 
	d="
M576.695312,602.368530 
	C586.146667,601.111328 593.854309,606.641113 595.221985,615.262512 
	C596.505737,623.354797 590.604309,631.351440 582.093201,633.052612 
	C574.145386,634.641174 566.440857,629.219849 564.501465,620.674316 
	C562.578552,612.201294 567.343506,604.858154 576.695312,602.368530 
z"/>
<path fill="#000000" opacity="1.000000" stroke="none" 
	d="
M533.359558,655.239563 
	C530.048523,646.176025 532.870056,638.067078 540.233582,634.579834 
	C547.719177,631.034851 556.279968,633.350891 560.290161,640.005920 
	C564.783508,647.462524 562.717773,657.093750 555.676941,661.515564 
	C547.786194,666.471008 538.843567,664.074768 533.359558,655.239563 
z"/>
</svg>